<?xml version="1.0" encoding="utf-8"?>
<!-- Generator: Adobe Illustrator 23.1.1, SVG Export Plug-In . SVG Version: 6.00 Build 0)  -->
<svg version="1.1" fill="#FFF" id="Camada_1" xmlns="http://www.w3.org/2000/svg" xmlns:xlink="http://www.w3.org/1999/xlink" x="0px" y="0px"
	 viewBox="0 0 383.5 101.6" style="enable-background:new 0 0 383.5 101.6;" xml:space="preserve">
<path d="M33.1,50.9c-0.1,0.3-0.2,0.6-0.4,0.9c-0.1,0.2-0.1,0.3-0.2,0.5c0,0.1-0.1,0.2-0.1,0.2c-4.5-1.8-7.6-6.2-7.6-11.1
	c0-6.6,5.4-12,12-12c4.5,0,8.6,2.5,10.6,6.5c-0.1,0-0.2,0.1-0.3,0.1c-0.1,0-0.2,0.1-0.2,0.1c-6.2,3-11,8.1-13.7,14.4
	C33.2,50.8,33.1,50.8,33.1,50.9z M59.5,88.2C45,88.2,33.2,76.4,33.2,62c0-2.7,0.4-5.2,1.1-7.7c0.1-0.3,0.2-0.6,0.3-0.9
	c2.4-6.9,7.5-12.4,14.1-15.4c0.2-0.1,0.3-0.2,0.5-0.2c3.1-1.3,6.6-2,10.2-2C74,35.7,85.7,47.5,85.7,62C85.7,76.4,74,88.2,59.5,88.2z
	 M80.2,13.4c4.5,0,8.1,3.6,8.1,8.1s-3.6,8.1-8.1,8.1c-4.5,0-8.1-3.6-8.1-8.1S75.7,13.4,80.2,13.4z M75.2,20.7
	c0.2,0.1,0.3,0.1,0.5,0.1c0.4,0,0.8-0.2,1-0.7c0.5-1,1.2-1.7,2.2-2.2c0.6-0.3,0.8-1,0.6-1.5c-0.3-0.6-1-0.8-1.5-0.6
	c-1.4,0.7-2.6,1.8-3.3,3.3C74.3,19.7,74.6,20.4,75.2,20.7z M50.4,41.3c-5,2.3-9,6.3-11.4,11.3c-0.3,0.6,0,1.3,0.5,1.5
	c0.2,0.1,0.3,0.1,0.5,0.1c0.4,0,0.8-0.2,1-0.7c2.1-4.5,5.8-8.1,10.3-10.2c0.6-0.3,0.8-1,0.6-1.5C51.6,41.3,50.9,41.1,50.4,41.3z
	 M33.9,32.8c-2.5,1.2-4.6,3.2-5.7,5.7c-0.3,0.6,0,1.3,0.5,1.5c0.2,0.1,0.3,0.1,0.5,0.1c0.4,0,0.8-0.2,1-0.7c1-2,2.6-3.6,4.6-4.6
	c0.6-0.3,0.8-1,0.6-1.5C35.2,32.7,34.5,32.5,33.9,32.8z"/>
<g>
	<path d="M118,72.2c-2.8,0-5.5-0.6-7.8-1.7s-4.3-2.9-5.8-5.4c-1.5-2.5-2.2-5.8-2.2-9.9c0-3.7,0.7-6.8,2.2-9.3c1.4-2.5,3.4-4.4,6-5.6
		c2.5-1.3,5.5-1.9,8.7-1.9c2.2,0,4.3,0.3,6.2,0.8c1.9,0.6,3.5,1.3,4.7,2.1c0.7,0.5,1.3,1,1.8,1.7c0.5,0.6,0.7,1.4,0.7,2.2v22.7h-5.9
		V45.3c-0.8-0.5-1.9-1-3.1-1.4c-1.2-0.4-2.7-0.6-4.4-0.6c-3.3,0-5.9,1-7.9,3c-2,2-3,5-3,8.9c0,4.4,1,7.5,3,9.4
		c2,1.9,4.5,2.8,7.5,2.8c2.2,0,3.9-0.4,5.2-1.1s2.4-1.5,3.2-2.4l0.3,5.2c-0.7,0.8-1.9,1.5-3.5,2.2C122.3,71.9,120.3,72.2,118,72.2z
		 M126.6,74.3v-7.7h5.9v8.1c0,3.2-0.7,5.8-2.1,7.8c-1.4,2-3.3,3.4-5.7,4.3c-2.4,0.9-5.1,1.3-8.2,1.3c-2.4,0-4.5-0.3-6.3-0.8
		c-1.8-0.5-3-1-3.6-1.3c-1.5-0.8-2.2-1.9-2.2-3.2c0-0.7,0.2-1.3,0.5-1.7c0.3-0.5,0.7-0.8,1.2-1.1c1,0.8,2.5,1.5,4.4,2.2
		c1.9,0.7,3.9,1,6,1c3.3,0,5.8-0.7,7.5-2.1C125.7,79.6,126.6,77.3,126.6,74.3z"/>
	<path d="M174.8,56.3c0,3.6-0.7,6.8-2.1,9.5c-1.4,2.7-3.3,4.8-5.8,6.2s-5.4,2.2-8.8,2.2c-3.4,0-6.3-0.7-8.8-2.2
		c-2.5-1.5-4.5-3.5-5.8-6.2c-1.4-2.7-2.1-5.8-2.1-9.5c0-3.7,0.7-6.8,2.1-9.5c1.4-2.7,3.3-4.7,5.9-6.2c2.5-1.5,5.4-2.2,8.8-2.2
		c3.3,0,6.2,0.7,8.7,2.2c2.5,1.5,4.4,3.5,5.8,6.2C174.1,49.4,174.8,52.6,174.8,56.3z M158.1,43.2c-3.3,0-5.9,1.2-7.8,3.5
		c-1.9,2.3-2.9,5.5-2.9,9.6c0,4.1,0.9,7.3,2.8,9.6c1.9,2.3,4.5,3.4,7.9,3.4c3.3,0,5.9-1.2,7.8-3.5c1.9-2.3,2.8-5.5,2.8-9.6
		c0-4.1-0.9-7.2-2.8-9.6C164.1,44.4,161.5,43.2,158.1,43.2z"/>
	<path d="M203.9,39.6c0.5-0.2,1.3-0.5,2.3-0.8c1-0.3,2-0.4,3-0.4c1.8,0,3.3,0.3,4.5,0.8c1.2,0.5,1.9,1.3,2.2,2.4
		c0.8,2.9,1.6,5.5,2.3,7.9c0.7,2.4,1.4,4.7,2,6.9s1.3,4.6,1.9,7h0.3c0.7-4.1,1.3-7.9,1.8-11.7c0.5-3.7,1.1-7.4,1.5-11
		c0.5-3.6,1-7.3,1.4-11.1c1.6-0.9,3.3-1.3,5-1.3c1.6,0,3,0.3,4.1,1c1.1,0.7,1.7,1.8,1.7,3.4c0,1.1-0.1,2.6-0.3,4.5
		c-0.2,1.9-0.5,4.1-0.9,6.6c-0.4,2.5-0.8,5.1-1.4,7.8c-0.5,2.7-1.1,5.3-1.7,7.9s-1.2,4.9-1.8,7c-0.6,2.1-1.1,3.8-1.7,5
		c-0.6,0.5-1.7,1-3.1,1.4c-1.4,0.4-2.9,0.6-4.5,0.6c-2,0-3.6-0.3-5.1-0.8s-2.3-1.3-2.6-2.3c-0.5-1.4-1-3.1-1.7-5
		c-0.6-1.9-1.2-4-1.9-6.3c-0.6-2.3-1.3-4.6-1.9-7c-0.5,2.3-1.1,4.7-1.8,7.2c-0.6,2.4-1.2,4.7-1.8,6.8c-0.6,2.1-1.1,3.9-1.6,5.4
		c-0.6,0.5-1.6,1-2.9,1.4c-1.3,0.4-2.7,0.6-4.3,0.6c-1.9,0-3.6-0.3-5.1-0.9c-1.6-0.6-2.6-1.3-3-2.3c-0.5-1.1-1.1-2.8-1.7-5.1
		c-0.7-2.3-1.3-4.9-2.1-7.8c-0.7-3-1.4-6-2-9.3c-0.6-3.2-1.2-6.4-1.8-9.4c-0.5-3.1-1-5.8-1.2-8.2c0.6-0.5,1.5-1.1,2.5-1.5
		c1.1-0.5,2.2-0.7,3.5-0.7c1.6,0,2.9,0.4,4,1.1c1,0.7,1.7,1.9,2,3.6c0.8,4.5,1.4,8.4,1.9,11.6c0.5,3.2,1,6,1.3,8.3s0.7,4.3,1,6
		c0.3,1.7,0.6,3.2,0.9,4.6h0.4c0.5-2,1-3.9,1.4-5.6c0.4-1.7,0.9-3.5,1.4-5.3c0.5-1.8,1-3.7,1.5-5.8
		C202.8,44.8,203.3,42.4,203.9,39.6z"/>
	<path d="M258.9,36.9c5.1,0,9.1,1.1,12.2,3.2c3,2.1,4.5,5.4,4.5,9.9v16.6c0,1.2-0.3,2.2-1,3c-0.6,0.8-1.4,1.4-2.4,1.9
		c-1.5,0.9-3.3,1.6-5.5,2.1c-2.2,0.5-4.7,0.8-7.4,0.8c-5,0-9-1-11.9-2.9c-3-2-4.4-4.9-4.4-8.7c0-3.3,1-5.9,3.1-7.7
		c2.1-1.8,5.1-2.9,9.2-3.3l9.8-1v-0.9c0-1.7-0.6-2.9-1.9-3.6c-1.3-0.7-3.1-1.1-5.5-1.1c-1.9,0-3.7,0.2-5.5,0.7
		c-1.8,0.4-3.4,1-4.8,1.5c-0.6-0.4-1.1-1-1.5-1.8c-0.4-0.8-0.6-1.7-0.6-2.5c0-2.1,1.1-3.5,3.4-4.5c1.4-0.6,3.1-1,5-1.3
		C255.3,37,257.1,36.9,258.9,36.9z M259.3,66.2c1.1,0,2.2-0.1,3.3-0.3c1.1-0.2,1.9-0.5,2.4-0.8v-7l-6.2,0.6c-1.7,0.1-3,0.4-4,1
		c-1,0.6-1.5,1.5-1.5,2.6c0,1.2,0.5,2.1,1.4,2.8C255.8,65.9,257.3,66.2,259.3,66.2z"/>
	<path d="M312.5,62.9c0,3.6-1.3,6.4-4,8.4s-6.6,3-11.7,3c-4,0-7.3-0.6-9.9-1.8c-2.6-1.2-3.9-2.9-3.9-5.2c0-1,0.2-1.9,0.7-2.7
		c0.4-0.8,1-1.4,1.7-1.8c1.4,0.8,3,1.5,4.8,2.2s3.9,1,6.3,1c3.6,0,5.4-1,5.4-3.1c0-0.9-0.3-1.6-1-2.1c-0.6-0.5-1.7-0.9-3.2-1.1
		l-3.1-0.7c-3.9-0.8-6.8-2.1-8.8-3.9c-1.9-1.7-2.9-4.1-2.9-7.2c0-3.4,1.4-6.1,4.1-8.2c2.8-2,6.5-3,11.2-3c2.3,0,4.5,0.2,6.4,0.7
		c1.9,0.5,3.5,1.2,4.6,2.1c1.1,1,1.7,2.1,1.7,3.6c0,1-0.2,1.8-0.6,2.6c-0.4,0.7-0.9,1.3-1.5,1.8c-0.5-0.3-1.4-0.7-2.5-1.1
		c-1.1-0.4-2.3-0.7-3.6-1c-1.3-0.2-2.5-0.4-3.6-0.4c-1.8,0-3.1,0.2-4.1,0.7c-1,0.5-1.5,1.2-1.5,2.2c0,0.6,0.3,1.2,0.8,1.7
		c0.6,0.5,1.6,0.8,3,1.1l2.9,0.7c4.4,1,7.5,2.4,9.4,4.2C311.6,57.6,312.5,60,312.5,62.9z"/>
	<path d="M330.3,59.5h-10.9v-34c0.4-0.1,1.1-0.3,2-0.4s1.8-0.2,2.9-0.2c2.1,0,3.6,0.4,4.6,1.1c1,0.7,1.4,2.1,1.4,4V59.5z
		 M319.4,53.9h10.9v19.3c-0.5,0.1-1.2,0.3-2.1,0.4c-0.9,0.1-1.8,0.2-2.9,0.2c-2.1,0-3.6-0.4-4.5-1.1s-1.4-2.1-1.4-4V53.9z
		 M353.1,58.3h-10.9v-6.5c0-2.2-0.6-3.8-1.7-4.8c-1.1-1-2.6-1.4-4.4-1.4c-1.6,0-3,0.3-4.2,0.9c-1.2,0.6-2.3,1.2-3.2,2l-0.3-8.8
		c1.1-0.6,2.5-1.2,4.2-1.8c1.7-0.6,3.5-0.8,5.5-0.8c4.6,0,8.3,1.2,11,3.6c2.7,2.4,4,5.9,4,10.7V58.3z M342.1,53.9h10.9v19.3
		c-0.5,0.1-1.2,0.3-2.1,0.4c-0.9,0.1-1.8,0.2-2.9,0.2c-2.1,0-3.6-0.4-4.6-1.1c-1-0.7-1.4-2.1-1.4-4V53.9z"/>
</g>
</svg>
